<svg width="12" height="12" viewBox="0 0 12 12" fill="none" xmlns="http://www.w3.org/2000/svg">
<path fill-rule="evenodd" clip-rule="evenodd" d="M5.99999 1C6.27613 0.999995 6.49999 1.22385 6.5 1.49999L6.5001 6.79313L8.14657 5.14667C8.34183 4.9514 8.65842 4.9514 8.85368 5.14667C9.04894 5.34193 9.04894 5.65851 8.85368 5.85377L6.35368 8.35377C6.25991 8.44754 6.13273 8.50022 6.00012 8.50022C5.86752 8.50022 5.74034 8.44754 5.64657 8.35377L3.14657 5.85377C2.95131 5.65851 2.95131 5.34193 3.14657 5.14667C3.34183 4.9514 3.65842 4.9514 3.85368 5.14667L5.5001 6.79309L5.5 1.50001C5.49999 1.22387 5.72385 1.00001 5.99999 1ZM1 10.0002C1 9.72408 1.22386 9.50022 1.5 9.50022H10.5001C10.7763 9.50022 11.0001 9.72408 11.0001 10.0002C11.0001 10.2764 10.7763 10.5002 10.5001 10.5002H1.5C1.22386 10.5002 1 10.2764 1 10.0002Z" fill="#CCCCCC"/>
</svg>
