<svg width="24" height="24" viewBox="0 0 24 24" fill="none" xmlns="http://www.w3.org/2000/svg">
<path d="M12 5.53857C3.69231 5.53857 0 12.0001 0 12.0001C0 12.0001 3.69231 18.4617 12 18.4617C20.3077 18.4617 24 12.0001 24 12.0001C24 12.0001 20.3077 5.53857 12 5.53857Z" fill="#FFCD51"/>
<path d="M12 8.25922C9.92571 8.25922 8.22857 9.94262 8.22857 12.0001C8.22857 14.0576 9.92571 15.741 12 15.741C14.0743 15.741 15.7714 14.0576 15.7714 12.0001C15.7714 9.94262 14.0743 8.25922 12 8.25922Z" fill="white"/>
<path d="M12 13.0204C12.5681 13.0204 13.0286 12.5636 13.0286 12.0001C13.0286 11.4366 12.5681 10.9799 12 10.9799C11.4319 10.9799 10.9714 11.4366 10.9714 12.0001C10.9714 12.5636 11.4319 13.0204 12 13.0204Z" fill="#FFCD51"/>
</svg>
