<svg width="48" height="48" viewBox="0 0 48 48" fill="none" xmlns="http://www.w3.org/2000/svg">
<path d="M36 48H12C8.68629 48 6 45.3137 6 42V6C6 2.68629 8.68629 0 12 0H28.2687L42 14.1844V42C42 45.3137 39.3137 48 36 48Z" fill="#1A89FF"/>
<path opacity="0.5" d="M42.0009 14.1844L28.2695 0V14.1844H42.0009Z" fill="#5FADFF"/>
<path d="M13.8633 3.6001V5.4001C13.8633 5.73147 14.1319 6.0001 14.4633 6.0001H16.8633V8.4001H14.4633C14.1319 8.4001 13.8633 8.66873 13.8633 9.0001V10.8001C13.8633 11.1315 14.1319 11.4001 14.4633 11.4001H16.8633V13.8001H14.4633C14.1319 13.8001 13.8633 14.0687 13.8633 14.4001V16.2001C13.8633 16.5315 14.1319 16.8001 14.4633 16.8001H16.8633V18.6001C16.8633 18.9315 17.1319 19.2001 17.4633 19.2001H21.0633C21.3947 19.2001 21.6633 18.9315 21.6633 18.6001V17.4001C21.6633 17.0687 21.3947 16.8001 21.0633 16.8001H18.6633V13.8001H21.0633C21.3947 13.8001 21.6633 13.5315 21.6633 13.2001V12.0001C21.6633 11.6687 21.3947 11.4001 21.0633 11.4001H18.6633V8.4001H21.0633C21.3947 8.4001 21.6633 8.13147 21.6633 7.8001V6.6001C21.6633 6.26873 21.3947 6.0001 21.0633 6.0001H18.6633V3.6001H13.8633Z" fill="white"/>
<path fill-rule="evenodd" clip-rule="evenodd" d="M19.2636 21.6001C19.2636 21.2687 18.995 21.0001 18.6636 21.0001H16.8636C16.5322 21.0001 16.2636 21.2687 16.2636 21.6001V25.2001L15.3109 27.6881C14.8932 28.7789 15.258 30.0183 16.196 30.7145C17.1295 31.4074 18.4157 31.3965 19.333 30.6823C20.2139 29.9964 20.5556 28.8229 20.1806 27.7714L19.2636 25.2001V21.6001ZM18.7324 27.2983H16.7871L16.4857 28.2559C16.3303 28.7499 16.4749 29.2916 16.8538 29.6447C17.3697 30.1255 18.1741 30.1256 18.6861 29.6406C19.058 29.2883 19.1956 28.7543 19.0403 28.2662L18.7324 27.2983Z" fill="white"/>
</svg>
