<svg width="24" height="24" viewBox="0 0 24 24" fill="none" xmlns="http://www.w3.org/2000/svg">
<path d="M18 24H6C4.34315 24 3 22.6569 3 21V3C3 1.34315 4.34315 0 6 0H14.1343L21 7.09219V21C21 22.6569 19.6569 24 18 24Z" fill="#1A89FF"/>
<path opacity="0.5" d="M21.0004 7.09219L14.1348 0V7.09219H21.0004Z" fill="#5FADFF"/>
<path d="M6.93164 1.7998V2.6998C6.93164 2.86549 7.06596 2.9998 7.23164 2.9998H8.43164V4.1998H7.23164C7.06596 4.1998 6.93164 4.33412 6.93164 4.4998V5.3998C6.93164 5.56549 7.06596 5.6998 7.23164 5.6998H8.43164V6.8998H7.23164C7.06596 6.8998 6.93164 7.03412 6.93164 7.1998V8.0998C6.93164 8.26549 7.06596 8.3998 7.23164 8.3998H8.43164V9.2998C8.43164 9.46549 8.56596 9.5998 8.73164 9.5998H10.5316C10.6973 9.5998 10.8316 9.46549 10.8316 9.2998V8.6998C10.8316 8.53412 10.6973 8.3998 10.5316 8.3998H9.33164V6.8998H10.5316C10.6973 6.8998 10.8316 6.76549 10.8316 6.5998V5.9998C10.8316 5.83412 10.6973 5.6998 10.5316 5.6998H9.33164V4.1998H10.5316C10.6973 4.1998 10.8316 4.06549 10.8316 3.8998V3.2998C10.8316 3.13412 10.6973 2.9998 10.5316 2.9998H9.33164V1.7998H6.93164Z" fill="white"/>
<path fill-rule="evenodd" clip-rule="evenodd" d="M9.63141 10.8C9.63141 10.6343 9.49709 10.5 9.33141 10.5H8.43141C8.26572 10.5 8.13141 10.6343 8.13141 10.8V12.6L7.65506 13.844C7.4462 14.3894 7.62862 15.0091 8.0976 15.3572L-nan -nanL-nan -nanL8.0976 15.3572C8.56436 15.7037 9.20745 15.6982 9.66611 15.3411L-nan -nanL-nan -nanL9.66611 15.3411C10.1066 14.9982 10.2774 14.4114 10.0899 13.8856L9.63141 12.6V10.8ZM9.36579 13.6491H8.39315L8.24248 14.1279C8.16475 14.3749 8.23707 14.6457 8.42651 14.8223L-nan -nanL-nan -nanL8.42651 14.8223C8.68446 15.0627 9.08665 15.0627 9.34265 14.8203L-nan -nanL-nan -nanL9.34265 14.8203C9.52862 14.6441 9.59743 14.3771 9.51977 14.133L9.36579 13.6491Z" fill="white"/>
</svg>
