<svg width="150" height="48" viewBox="0 0 150 48" fill="none" xmlns="http://www.w3.org/2000/svg">
<rect width="150" height="48" fill="white"/>
<path d="M55.275 29V18.35H56.625V27.8H62.565V29H55.275ZM68.0325 29.075C67.2825 29.075 66.6025 28.925 65.9925 28.625C65.3825 28.325 64.8525 27.92 64.4025 27.41C63.9625 26.89 63.6225 26.31 63.3825 25.67C63.1425 25.02 63.0225 24.355 63.0225 23.675C63.0225 22.965 63.1475 22.29 63.3975 21.65C63.6575 21 64.0125 20.425 64.4625 19.925C64.9225 19.415 65.4575 19.015 66.0675 18.725C66.6775 18.425 67.3425 18.275 68.0625 18.275C68.8125 18.275 69.4925 18.43 70.1025 18.74C70.7125 19.05 71.2375 19.465 71.6775 19.985C72.1175 20.505 72.4575 21.085 72.6975 21.725C72.9375 22.365 73.0575 23.02 73.0575 23.69C73.0575 24.4 72.9325 25.08 72.6825 25.73C72.4325 26.37 72.0775 26.945 71.6175 27.455C71.1675 27.955 70.6375 28.35 70.0275 28.64C69.4175 28.93 68.7525 29.075 68.0325 29.075ZM64.3875 23.675C64.3875 24.215 64.4725 24.74 64.6425 25.25C64.8225 25.75 65.0725 26.195 65.3925 26.585C65.7125 26.975 66.0975 27.285 66.5475 27.515C66.9975 27.745 67.4975 27.86 68.0475 27.86C68.6175 27.86 69.1275 27.74 69.5775 27.5C70.0275 27.26 70.4075 26.94 70.7175 26.54C71.0375 26.14 71.2775 25.69 71.4375 25.19C71.6075 24.69 71.6925 24.185 71.6925 23.675C71.6925 23.135 71.6025 22.615 71.4225 22.115C71.2525 21.615 71.0025 21.17 70.6725 20.78C70.3525 20.38 69.9675 20.07 69.5175 19.85C69.0775 19.62 68.5875 19.505 68.0475 19.505C67.4775 19.505 66.9675 19.625 66.5175 19.865C66.0675 20.095 65.6825 20.41 65.3625 20.81C65.0525 21.21 64.8125 21.66 64.6425 22.16C64.4725 22.65 64.3875 23.155 64.3875 23.675ZM79.2082 29.075C78.5082 29.075 77.8532 28.925 77.2432 28.625C76.6432 28.315 76.1182 27.905 75.6682 27.395C75.2182 26.875 74.8682 26.295 74.6182 25.655C74.3682 25.005 74.2432 24.335 74.2432 23.645C74.2432 22.925 74.3682 22.245 74.6182 21.605C74.8682 20.955 75.2132 20.38 75.6532 19.88C76.1032 19.38 76.6282 18.99 77.2282 18.71C77.8382 18.42 78.4982 18.275 79.2082 18.275C80.2382 18.275 81.0882 18.49 81.7582 18.92C82.4282 19.35 82.9332 19.91 83.2732 20.6L82.2382 21.32C81.9282 20.7 81.5032 20.24 80.9632 19.94C80.4232 19.64 79.8282 19.49 79.1782 19.49C78.6382 19.49 78.1482 19.605 77.7082 19.835C77.2682 20.065 76.8882 20.38 76.5682 20.78C76.2582 21.17 76.0182 21.615 75.8482 22.115C75.6882 22.615 75.6082 23.135 75.6082 23.675C75.6082 24.245 75.6982 24.785 75.8782 25.295C76.0682 25.795 76.3332 26.24 76.6732 26.63C77.0132 27.01 77.4082 27.31 77.8582 27.53C78.3082 27.75 78.7932 27.86 79.3132 27.86C79.9232 27.86 80.5032 27.705 81.0532 27.395C81.6032 27.085 82.1232 26.61 82.6132 25.97V27.365C81.6532 28.505 80.5182 29.075 79.2082 29.075ZM82.4482 24.71H80.1532V23.69H83.5882V29H82.4482V24.71ZM89.9612 29.075C89.2112 29.075 88.5312 28.925 87.9212 28.625C87.3112 28.325 86.7812 27.92 86.3312 27.41C85.8912 26.89 85.5512 26.31 85.3112 25.67C85.0712 25.02 84.9512 24.355 84.9512 23.675C84.9512 22.965 85.0762 22.29 85.3262 21.65C85.5862 21 85.9412 20.425 86.3912 19.925C86.8512 19.415 87.3862 19.015 87.9962 18.725C88.6062 18.425 89.2712 18.275 89.9912 18.275C90.7412 18.275 91.4212 18.43 92.0312 18.74C92.6412 19.05 93.1662 19.465 93.6062 19.985C94.0462 20.505 94.3862 21.085 94.6262 21.725C94.8662 22.365 94.9862 23.02 94.9862 23.69C94.9862 24.4 94.8612 25.08 94.6112 25.73C94.3612 26.37 94.0062 26.945 93.5462 27.455C93.0962 27.955 92.5662 28.35 91.9562 28.64C91.3462 28.93 90.6812 29.075 89.9612 29.075ZM86.3162 23.675C86.3162 24.215 86.4012 24.74 86.5712 25.25C86.7512 25.75 87.0012 26.195 87.3212 26.585C87.6412 26.975 88.0262 27.285 88.4762 27.515C88.9262 27.745 89.4262 27.86 89.9762 27.86C90.5462 27.86 91.0562 27.74 91.5062 27.5C91.9562 27.26 92.3362 26.94 92.6462 26.54C92.9662 26.14 93.2062 25.69 93.3662 25.19C93.5362 24.69 93.6212 24.185 93.6212 23.675C93.6212 23.135 93.5312 22.615 93.3512 22.115C93.1812 21.615 92.9312 21.17 92.6012 20.78C92.2812 20.38 91.8962 20.07 91.4462 19.85C91.0062 19.62 90.5162 19.505 89.9762 19.505C89.4062 19.505 88.8962 19.625 88.4462 19.865C87.9962 20.095 87.6112 20.41 87.2912 20.81C86.9812 21.21 86.7412 21.66 86.5712 22.16C86.4012 22.65 86.3162 23.155 86.3162 23.675Z" fill="black"/>
</svg>
