<svg xmlns="http://www.w3.org/2000/svg" xmlns:xlink="http://www.w3.org/1999/xlink"><symbol fill="none" id="arrow-triangle-sym" viewBox="0 0 12 12"><title>arrow-triangle</title><path d="M6 6.818 9.89 3 11 4.09 6 9 1 4.09 2.11 3 6 6.818Z" fill="#000"/></symbol><use fill="none" xlink:href="#arrow-triangle-sym" width="12" height="12"/><view id="arrow-triangle" viewBox="0 0 12 12"/><symbol fill="none" id="download-sym" viewBox="0 0 12 12"><title>download</title><path fill-rule="evenodd" clip-rule="evenodd" d="M6 1a.5.5 0 0 1 .5.5v5.293l1.647-1.646a.5.5 0 1 1 .707.707l-2.5 2.5a.5.5 0 0 1-.707 0l-2.5-2.5a.5.5 0 1 1 .707-.707L5.5 6.793V1.5A.5.5 0 0 1 6 1Zm-5 9a.5.5 0 0 1 .5-.5h9a.5.5 0 1 1 0 1h-9A.5.5 0 0 1 1 10Z" fill="#CCC"/></symbol><use fill="none" xlink:href="#download-sym" y="12" width="12" height="12"/><view id="download" viewBox="0 12 12 12"/><symbol fill="none" id="eye-sym" viewBox="0 0 24 24"><title>eye</title><path d="M12 5.539C3.692 5.539 0 12 0 12s3.692 6.462 12 6.462S24 12 24 12s-3.692-6.46-12-6.46Z" fill="#FFCD51"/><path d="M12 8.26c-2.074 0-3.771 1.683-3.771 3.74 0 2.058 1.697 3.741 3.771 3.741s3.771-1.683 3.771-3.74c0-2.058-1.697-3.742-3.771-3.742Z" fill="#fff"/><path d="M12 13.02c.568 0 1.029-.456 1.029-1.02 0-.563-.46-1.02-1.029-1.02-.568 0-1.029.457-1.029 1.02 0 .564.46 1.02 1.029 1.02Z" fill="#FFCD51"/></symbol><use fill="none" xlink:href="#eye-sym" y="24" width="24" height="24"/><view id="eye" viewBox="0 24 24 24"/><symbol fill="none" id="pdf-sym" viewBox="0 0 48 48"><title>pdf</title><path d="M36 48H12a6 6 0 0 1-6-6V6a6 6 0 0 1 6-6h16.269L42 14.184V42a6 6 0 0 1-6 6Z" fill="#1A89FF"/><path opacity=".5" d="M42 14.184 28.27 0v14.184H42Z" fill="#5FADFF"/><path d="M13.863 3.6v1.8a.6.6 0 0 0 .6.6h2.4v2.4h-2.4a.6.6 0 0 0-.6.6v1.8a.6.6 0 0 0 .6.6h2.4v2.4h-2.4a.6.6 0 0 0-.6.6v1.8a.6.6 0 0 0 .6.6h2.4v1.8a.6.6 0 0 0 .6.6h3.6a.6.6 0 0 0 .6-.6v-1.2a.6.6 0 0 0-.6-.6h-2.4v-3h2.4a.6.6 0 0 0 .6-.6V12a.6.6 0 0 0-.6-.6h-2.4v-3h2.4a.6.6 0 0 0 .6-.6V6.6a.6.6 0 0 0-.6-.6h-2.4V3.6h-4.8Z" fill="#fff"/><path fill-rule="evenodd" clip-rule="evenodd" d="M19.264 21.6a.6.6 0 0 0-.6-.6h-1.8a.6.6 0 0 0-.6.6v3.6l-.953 2.488a2.612 2.612 0 0 0 .885 3.027 2.588 2.588 0 0 0 3.985-2.943l-.917-2.572v-3.6Zm-.532 5.698h-1.945l-.301.958a1.349 1.349 0 0 0 .368 1.389 1.335 1.335 0 0 0 2.186-1.378l-.308-.969Z" fill="#fff"/></symbol><use fill="none" xlink:href="#pdf-sym" y="48" width="48" height="48"/><view id="pdf" viewBox="0 48 48 48"/></svg>