<svg xmlns="http://www.w3.org/2000/svg" xmlns:xlink="http://www.w3.org/1999/xlink"><symbol fill="none" id="arrow-triangle-sym" viewBox="0 0 12 12"><title>arrow-triangle</title><path d="M6 6.818 9.89 3 11 4.09 6 9 1 4.09 2.11 3 6 6.818Z" fill="#000"/></symbol><use fill="none" xlink:href="#arrow-triangle-sym" width="12" height="12"/><view id="arrow-triangle" viewBox="0 0 12 12"/><symbol fill="none" id="download-sym" viewBox="0 0 12 12"><title>download</title><path fill-rule="evenodd" clip-rule="evenodd" d="M6 1a.5.5 0 0 1 .5.5v5.293l1.647-1.646a.5.5 0 1 1 .707.707l-2.5 2.5a.5.5 0 0 1-.707 0l-2.5-2.5a.5.5 0 1 1 .707-.707L5.5 6.793V1.5A.5.5 0 0 1 6 1Zm-5 9a.5.5 0 0 1 .5-.5h9a.5.5 0 1 1 0 1h-9A.5.5 0 0 1 1 10Z" fill="#CCC"/></symbol><use fill="none" xlink:href="#download-sym" y="12" width="12" height="12"/><view id="download" viewBox="0 12 12 12"/><symbol fill="none" id="eye-sym" viewBox="0 0 24 24"><title>eye</title><path d="M12 5.539C3.692 5.539 0 12 0 12s3.692 6.462 12 6.462S24 12 24 12s-3.692-6.46-12-6.46Z" fill="#FFCD51"/><path d="M12 8.26c-2.074 0-3.771 1.683-3.771 3.74 0 2.058 1.697 3.741 3.771 3.741s3.771-1.683 3.771-3.74c0-2.058-1.697-3.742-3.771-3.742Z" fill="#fff"/><path d="M12 13.02c.568 0 1.029-.456 1.029-1.02 0-.563-.46-1.02-1.029-1.02-.568 0-1.029.457-1.029 1.02 0 .564.46 1.02 1.029 1.02Z" fill="#FFCD51"/></symbol><use fill="none" xlink:href="#eye-sym" y="24" width="24" height="24"/><view id="eye" viewBox="0 24 24 24"/><symbol fill="none" id="pdf-sym" viewBox="0 0 24 24"><title>pdf</title><path d="M18 24H6a3 3 0 0 1-3-3V3a3 3 0 0 1 3-3h8.134L21 7.092V21a3 3 0 0 1-3 3Z" fill="#1A89FF"/><path opacity=".5" d="M21 7.092 14.135 0v7.092H21Z" fill="#5FADFF"/><path d="M6.932 1.8v.9a.3.3 0 0 0 .3.3h1.2v1.2h-1.2a.3.3 0 0 0-.3.3v.9a.3.3 0 0 0 .3.3h1.2v1.2h-1.2a.3.3 0 0 0-.3.3v.9a.3.3 0 0 0 .3.3h1.2v.9a.3.3 0 0 0 .3.3h1.8a.3.3 0 0 0 .3-.3v-.6a.3.3 0 0 0-.3-.3h-1.2V6.9h1.2a.3.3 0 0 0 .3-.3V6a.3.3 0 0 0-.3-.3h-1.2V4.2h1.2a.3.3 0 0 0 .3-.3v-.6a.3.3 0 0 0-.3-.3h-1.2V1.8h-2.4Z" fill="#fff"/><path fill-rule="evenodd" clip-rule="evenodd" d="M9.631 10.8a.3.3 0 0 0-.3-.3h-.9a.3.3 0 0 0-.3.3v1.8l-.476 1.244a1.306 1.306 0 0 0 .443 1.513" fill="#fff"/></symbol><use fill="none" xlink:href="#pdf-sym" y="48" width="24" height="24"/><view id="pdf" viewBox="0 48 24 24"/></svg>